<?xml version="1.0" encoding="utf-8"?>
<!-- Generator: Adobe Illustrator 21.1.0, SVG Export Plug-In . SVG Version: 6.00 Build 0)  -->
<svg version="1.1" id="Capa_1" xmlns="http://www.w3.org/2000/svg" xmlns:xlink="http://www.w3.org/1999/xlink" x="0px" y="0px"
	 viewBox="0 0 90 54" style="enable-background:new 0 0 90 54;" xml:space="preserve">
<style type="text/css">
	.st0{fill:#FFFFFF;}
</style>
<title>Artboard 1</title>
<desc>Created with Sketch.</desc>
<g id="Page-1">
	<g id="Artboard-1">
		<path id="Shape" class="st0" d="M88.2,54c1,0,1.8-0.8,1.8-1.8V11.8c0-1-0.8-1.8-1.8-1.8l0,0H1.8c-1,0-1.8,0.8-1.8,1.8v40.4
			c0,1,0.8,1.8,1.8,1.8H88.2z M22.5,41c-5,0-9-4-9-9s4-9,9-9s9,4,9,9S27.5,41,22.5,41L22.5,41z M67.5,41c-5,0-9-4-9-9s4-9,9-9
			s9,4,9,9S72.5,41,67.5,41L67.5,41z"/>
	</g>
</g>
<path class="st0" d="M21.2,7.6V6.4c0-3.5,2.9-6.4,6.4-6.4h34.8c3.5,0,6.4,2.9,6.4,6.4v1.2H21.2z"/>
</svg>
